# xmcd
#
# Track frame offsets: 
#        150
#        13142
#        25320
#        40505
#        55170
#        66157
#        79157
#        92542
#        105147
#        118142
#        128842
#        143042
#        153792
#        166975
#        180582
#        194192
#        206160
#        219225
#        233972
#        247912
#        262575
#        276382
#        287712
#
# Disc length: 4048 seconds
#
# Revision: 2
# Processed by: cddbd v1.5.2PL0 Copyright (c) Steve Scherf et al.
# Submitted via: ExactAudioCopyFreeDBPlugin 1.0
#
DISCID=3d0fce17
DTITLE=The Supremes - The Supremes [box set]
DYEAR=2000
DGENRE=Soul
TTITLE0=Reflections
TTITLE1=In and Out of Love
TTITLE2=Heaven Must Have Sent You (original mix)
TTITLE3=Forever Came Today
TTITLE4=Some Things You Never Get Used To
TTITLE5=The Beginning of the End of Love
TTITLE6=Love Child
TTITLE7=How Long Has That Evening Train Been Gone
TTITLE8=Does Your Mama Know About Me
TTITLE9=He's My Sunny Boy
TTITLE10=I'm Gonna Make You Love Me (with The Temptations)
TTITLE11=I'll Try Something New (with The Temptations)
TTITLE12=TCB (with The Temptations)
TTITLE13=I'm Living in Shame
TTITLE14=The Composer
TTITLE15=Are You Sure Love is the Name of This Game
TTITLE16=No Matter What Sign You Are
TTITLE17=The Young Folks (original mix)
TTITLE18=Stormy
TTITLE19=Can't Take My Eyes Off You (alternate version ft Mary Wilson)
TTITLE20=The Weight (with The Temptations)
TTITLE21=The Beginning of the End
TTITLE22=Someday We'll Be Together
EXTD=
EXTT0=
EXTT1=
EXTT2=
EXTT3=
EXTT4=
EXTT5=
EXTT6=
EXTT7=
EXTT8=
EXTT9=
EXTT10=
EXTT11=
EXTT12=
EXTT13=
EXTT14=
EXTT15=
EXTT16=
EXTT17=
EXTT18=
EXTT19=
EXTT20=
EXTT21=
EXTT22=
PLAYORDER=
